<svg xmlns="http://www.w3.org/2000/svg" viewBox="0 0 128 128" role="img" aria-labelledby="logoTitle logoDesc">
  <title id="logoTitle">Ariya Puzzle Mark</title>
  <desc id="logoDesc">Minimal puzzle-piece logo with smooth curves in solid black.</desc>
  <path
    fill="#000"
    d="M28 30H50c2.2 0 4-1.8 4-4a10 10 0 1 1 20 0c0 2.2 1.8 4 4 4h22c4.4 0 8 3.6 8 8v18c0 2.2-1.8 4-4 4a10 10 0 1 0 0 20c2.2 0 4 1.8 4 4v18c0 4.4-3.6 8-8 8H78c-2.2 0-4 1.8-4 4a10 10 0 1 1-20 0c0-2.2-1.8-4-4-4H28c-4.4 0-8-3.6-8-8V84c0-2.2 1.8-4 4-4a10 10 0 1 0 0-20c-2.2 0-4-1.8-4-4V38c0-4.4 3.6-8 8-8Z"/>
</svg>
